<svg width="75" height="75" viewBox="0 0 75 75" fill="none" xmlns="http://www.w3.org/2000/svg">
    <path fill-rule="evenodd" clip-rule="evenodd"
        d="M0 37.5C0 16.7893 16.7893 0 37.5 0C58.2107 0 75 16.7893 75 37.5C75 58.2107 58.2107 75 37.5 75C16.7893 75 0 58.2107 0 37.5ZM36.3769 30.4805L36.4556 31.7781L35.1441 31.6192C30.3701 31.0101 26.1995 28.9446 22.6583 25.4755L20.9271 23.7542L20.4812 25.0253C19.5369 27.8588 20.1402 30.8512 22.1075 32.8638C23.1567 33.976 22.9206 34.1349 21.1107 33.4729C20.4812 33.261 19.9304 33.1021 19.8779 33.1816C19.6943 33.3669 20.3238 35.7767 20.8222 36.7301C21.5042 38.0541 22.8944 39.3517 24.4158 40.1197L25.7011 40.7287L24.1797 40.7552C22.7108 40.7552 22.6583 40.7817 22.8157 41.3378C23.3403 43.0591 25.4125 44.8863 27.7208 45.6807L29.3471 46.2369L27.9307 47.0843C25.8322 48.3024 23.3666 48.9909 20.9009 49.0439C19.7205 49.0704 18.75 49.1763 18.75 49.2557C18.75 49.5205 21.9501 51.0035 23.8125 51.5861C29.3996 53.3074 36.0359 52.5659 41.0197 49.6265C44.5608 47.5344 48.1019 43.3769 49.7544 39.3517C50.6463 37.2067 51.5381 33.2875 51.5381 31.4073C51.5381 30.1892 51.6168 30.0303 53.0857 28.5738C53.9513 27.7264 54.7644 26.7996 54.9218 26.5348C55.1841 26.0316 55.1579 26.0316 53.8201 26.4818C51.5906 27.2762 51.2758 27.1703 52.3775 25.9786C53.1906 25.1312 54.1611 23.5953 54.1611 23.1451C54.1611 23.0657 53.7677 23.1981 53.3218 23.4364C52.8496 23.7013 51.8004 24.0985 51.0135 24.3368L49.597 24.787L48.3117 23.9131C47.6035 23.4364 46.6068 22.9068 46.0822 22.7479C44.7444 22.3772 42.6984 22.4301 41.4918 22.8538C38.213 24.0455 36.1408 27.1173 36.3769 30.4805Z"
        fill="white" />
</svg>