<svg width="75" height="75" viewBox="0 0 75 75" fill="none" xmlns="http://www.w3.org/2000/svg">
    <path fill-rule="evenodd" clip-rule="evenodd"
        d="M37.5 75C16.7893 75 0 58.2107 0 37.5C0 16.7893 16.7893 0 37.5 0C58.2107 0 75 16.7893 75 37.5C75 58.2107 58.2107 75 37.5 75ZM19.2674 17.5L16.3327 25.3263V56.6275H27.0884V62.5H32.9606L38.827 56.6275H47.629L59.3674 44.8933V17.5H19.2674Z"
        fill="white" />
    <path fill-rule="evenodd" clip-rule="evenodd"
        d="M23.1774 21.4106H55.4559V42.9328L48.6075 49.7816H37.8501L31.9854 55.646V49.7816H23.1774V21.4106ZM33.9374 40.9789H37.85V29.2411H33.9374V40.9789ZM44.6956 40.9789H48.6074V29.2411H44.6956V40.9789Z"
        fill="white" />
</svg>