<svg width="75" height="75" viewBox="0 0 75 75" fill="none" xmlns="http://www.w3.org/2000/svg">
    <path fill-rule="evenodd" clip-rule="evenodd"
        d="M22.6103 58.3173C24.0955 59.1009 25.7495 59.51 27.4286 59.5094C33.0216 59.5094 37.5873 55.0605 37.7934 49.5156L37.8141 0H50.1681C50.1692 1.0517 50.267 2.10106 50.4602 3.13488H41.4145V3.13659H53.7702C53.7684 7.28067 55.2705 11.2846 57.9977 14.405L58.0011 14.409C60.783 16.2262 64.0345 17.1925 67.3575 17.1894V19.9409C68.5205 20.19 69.723 20.3227 70.9597 20.3227V32.68C64.7917 32.6872 58.778 30.7533 53.7703 27.1523V52.2606C53.7703 64.7983 43.5686 75 31.0291 75C27.9064 75.0008 24.8172 74.3566 21.955 73.1077C19.0948 71.8598 16.5233 70.035 14.4008 67.7475L14.3962 67.7442C8.5318 63.6269 4.6875 56.8177 4.6875 49.1256C4.6875 36.5861 14.8892 26.3828 27.4286 26.3828C28.4541 26.3877 29.4778 26.4623 30.4931 26.6061V29.5314C30.5645 29.53 30.6355 29.5275 30.7067 29.5252C30.8136 29.5214 30.9208 29.5177 31.0291 29.5177C32.0544 29.5225 33.0783 29.5972 34.0934 29.7409V42.3544C33.1247 42.0503 32.0992 41.8733 31.0291 41.8733C28.2753 41.8766 25.6353 42.972 23.6883 44.9194C21.7412 46.8667 20.6462 49.5069 20.6436 52.2605C20.6437 54.4355 21.3311 56.5548 22.6077 58.3159L22.6103 58.3173ZM9.78794 60.3745C10.8434 63.1244 12.4184 65.6189 14.3912 67.7389C12.3783 65.5848 10.824 63.0797 9.78794 60.3745Z"
        fill="white" />
</svg>