<svg width="75" height="75" viewBox="0 0 75 75" fill="none" xmlns="http://www.w3.org/2000/svg">
    <path fill-rule="evenodd" clip-rule="evenodd"
        d="M0 37.5C0 16.7893 16.7893 0 37.5 0C58.2107 0 75 16.7893 75 37.5C75 58.2107 58.2107 75 37.5 75C16.7893 75 0 58.2107 0 37.5ZM37.5019 17.5C32.0702 17.5 31.3885 17.5238 29.2551 17.6208C27.1259 17.7183 25.6726 18.0554 24.4009 18.55C23.0855 19.0608 21.9696 19.7442 20.858 20.8563C19.7454 21.968 19.0621 23.0838 18.5496 24.3988C18.0538 25.6709 17.7163 27.1247 17.6204 29.253C17.525 31.3864 17.5 32.0685 17.5 37.5002C17.5 42.9319 17.5242 43.6115 17.6208 45.7449C17.7188 47.8741 18.0558 49.3274 18.55 50.5991C19.0613 51.9145 19.7446 53.0304 20.8567 54.142C21.968 55.2546 23.0838 55.9396 24.3984 56.4504C25.6709 56.945 27.1247 57.2821 29.2535 57.3796C31.3868 57.4767 32.0681 57.5004 37.4994 57.5004C42.9315 57.5004 43.6111 57.4767 45.7445 57.3796C47.8736 57.2821 49.3287 56.945 50.6012 56.4504C51.9162 55.9396 53.0304 55.2546 54.1416 54.142C55.2541 53.0304 55.9375 51.9145 56.45 50.5995C56.9417 49.3274 57.2792 47.8736 57.3792 45.7453C57.475 43.6119 57.5 42.9319 57.5 37.5002C57.5 32.0685 57.475 31.3868 57.3792 29.2535C57.2792 27.1243 56.9417 25.6709 56.45 24.3992C55.9375 23.0838 55.2541 21.968 54.1416 20.8563C53.0291 19.7438 51.9166 19.0604 50.5999 18.55C49.3249 18.0554 47.8707 17.7183 45.7415 17.6208C43.6082 17.5238 42.929 17.5 37.4956 17.5H37.5019Z"
        fill="white" />
    <path fill-rule="evenodd" clip-rule="evenodd"
        d="M35.7077 21.1042C36.2402 21.1034 36.8344 21.1042 37.5019 21.1042C42.8419 21.1042 43.4749 21.1234 45.5836 21.2192C47.5336 21.3084 48.592 21.6342 49.297 21.908C50.2303 22.2705 50.8958 22.7038 51.5954 23.4038C52.2954 24.1038 52.7287 24.7705 53.092 25.7038C53.3658 26.408 53.692 27.4664 53.7808 29.4164C53.8766 31.5247 53.8975 32.1581 53.8975 37.4956C53.8975 42.8332 53.8766 43.4665 53.7808 45.5749C53.6916 47.5249 53.3658 48.5832 53.092 49.2874C52.7295 50.2208 52.2954 50.8853 51.5954 51.5849C50.8953 52.2849 50.2308 52.7183 49.297 53.0808C48.5928 53.3558 47.5336 53.6808 45.5836 53.77C43.4753 53.8658 42.8419 53.8866 37.5019 53.8866C32.1614 53.8866 31.5285 53.8658 29.4201 53.77C27.4701 53.68 26.4118 53.3541 25.7063 53.0804C24.773 52.7179 24.1063 52.2845 23.4063 51.5845C22.7063 50.8845 22.273 50.2195 21.9096 49.2857C21.6359 48.5816 21.3096 47.5232 21.2209 45.5732C21.125 43.4649 21.1059 42.8315 21.1059 37.4906C21.1059 32.1497 21.125 31.5197 21.2209 29.4114C21.31 27.4614 21.6359 26.403 21.9096 25.698C22.2721 24.7647 22.7063 24.098 23.4063 23.398C24.1063 22.698 24.773 22.2646 25.7063 21.9013C26.4113 21.6263 27.4701 21.3013 29.4201 21.2117C31.2651 21.1284 31.9802 21.1034 35.7077 21.0992V21.1042ZM48.1778 24.4251C46.8528 24.4251 45.7778 25.4988 45.7778 26.8243C45.7778 28.1493 46.8528 29.2243 48.1778 29.2243C49.5028 29.2243 50.5778 28.1493 50.5778 26.8243C50.5778 25.4992 49.5028 24.4251 48.1778 24.4251ZM37.5019 27.2293C31.8297 27.2293 27.2309 31.8281 27.2309 37.5002C27.2309 43.1724 31.8297 47.7691 37.5019 47.7691C43.174 47.7691 47.7711 43.1724 47.7711 37.5002C47.7711 31.8281 43.174 27.2293 37.5019 27.2293Z"
        fill="white" />
    <path fill-rule="evenodd" clip-rule="evenodd"
        d="M37.5019 30.8335C41.1836 30.8335 44.1686 33.8181 44.1686 37.5002C44.1686 41.1819 41.1836 44.1669 37.5019 44.1669C33.8198 44.1669 30.8351 41.1819 30.8351 37.5002C30.8351 33.8181 33.8198 30.8335 37.5019 30.8335Z"
        fill="white" />
</svg>